<svg id="Layer_1" data-name="Layer 1" xmlns="http://www.w3.org/2000/svg" viewBox="0 0 131.36 119.61"><defs><style>.cls-1{opacity:0.57;}</style></defs><g class="cls-1"><path d="M167.77,148c8.92-5.92,19.16-10,30-10.12,11.56-.16,21.46,4.7,29.7,12.61,16.69,16,26.22,38,35.13,58.95l5.14-9q-59.9,2.29-119.84,2.26c-7.66,0-7.68,11.9,0,11.9q59.93,0,119.84-2.26c4.9-.18,6.89-4.82,5.14-8.95-10.05-23.63-21.36-49.29-42-65.71s-47.88-14.08-69.13,0c-6.36,4.21-.4,14.53,6,10.28Z" transform="translate(-142.13 -95.04)"/></g><g class="cls-1"><path d="M230,95.07C208.89,97,189.83,110,168.43,109.23c-7.66-.28-7.65,11.63,0,11.9,21.77.79,40.35-12.24,61.59-14.16,7.57-.68,7.65-12.59,0-11.9Z" transform="translate(-142.13 -95.04)"/></g></svg>