<?xml version="1.0" encoding="utf-8"?>
<!-- Generator: Adobe Illustrator 24.1.2, SVG Export Plug-In . SVG Version: 6.00 Build 0)  -->
<svg version="1.1" xmlns="http://www.w3.org/2000/svg" xmlns:xlink="http://www.w3.org/1999/xlink" x="0px" y="0px"
	 viewBox="0 0 1920 1080" style="enable-background:new 0 0 1920 1080;" xml:space="preserve">
<style type="text/css">
	.st0{fill:#898989;stroke:#000000;stroke-miterlimit:10;}
</style>
<g id="Layer_2">
	<path class="st0" d="M1.09,665.01c1069.51,448,1810.88,576,1616.42,170.67s383.7-614-251.76-456.33s-210.08-1037-635.45,157.66"/>
</g>
<g id="Layer_1">
	<g>
		<g>
			<path d="M-1.5,176.36C9.72,365.49,55.93,555.97,145.78,723.58c65.73,122.62,162.53,248.73,297.65,298.35
				c27.25,10.01,55.86,16.37,84.86,18.15c34.3,2.11,70.87-1.07,98.73-23.23c35.16-27.97,48-76.13,55.28-118.41
				c8.54-49.6,10.2-100.46,10.32-150.7c0.23-103.09-10.44-206.37-32.18-307.16c-19.94-92.43-49.2-183.49-91.45-268.24
				c-19.08-38.26-40.92-75.25-66.33-109.66c-2.16-2.93-6.8-6.96-5.25-9.69c1.23-2.18,10.7-4.84,12.89-5.75
				c8.08-3.38,16.31-6.4,24.66-9.04c16.46-5.22,33.39-8.98,50.53-11.1c68.73-8.51,137.47,10.03,196.76,44.63
				c70.34,41.05,127.44,102.35,172.42,169.61c25.78,38.55,47.84,79.53,66.66,121.89c21.92,49.33,38.75,100.66,56.48,151.59
				c16.44,47.22,33.44,94.68,56.94,138.94c23.21,43.72,53.48,83.23,88.87,117.78c54.52,53.21,149.07,131.54,220.77,61.77
				c67.4-65.58,65.94-172.57,34.04-254.35c-19.44-49.81-45.61-97.26-69.22-145.17c-25.97-52.7-51.95-105.39-77.92-158.09
				c-13.55-27.49-27.1-54.99-40.65-82.48c-6.21-12.6-12.42-25.2-18.63-37.8c-6.68-13.54-15.01-27.14-20.33-41.24
				c-1.88-4.99-3.01-3.8,1.18-5.65c1.89-0.83,4.77-0.79,6.83-1.11c5.78-0.89,11.58-1.67,17.39-2.31c10.93-1.21,21.91-1.99,32.9-2.34
				c21.05-0.66,42.16,0.28,63.07,2.78c94.2,11.23,181.95,54.03,255.86,112.4c148.56,117.32,246.87,293.61,278.66,479.38
				c8.68,50.72,12.15,102.2,10.51,153.63c-0.06,1.93,2.94,1.93,3,0c4.97-156.17-38.87-312.36-121.16-444.94
				c-76.32-122.95-190.62-231.29-328.62-280.29c-72.05-25.58-149.39-32.82-224.7-19.11c-1.02,0.19-1.29,1.41-0.9,2.2
				c40.37,81.91,80.74,163.81,121.12,245.72c20.04,40.67,40.09,81.33,60.13,122c18.17,36.86,37.87,73.44,51.96,112.13
				c26.09,71.62,26.76,155.24-17.81,219.99c-18.1,26.29-43.6,47.4-76.53,49.53c-41.65,2.69-80.38-22.75-111.68-47.39
				c-60.37-47.54-110.52-106.28-144.18-175.59c-35.55-73.2-56.81-152.32-86-228.06C995.77,285.4,923.35,166.2,815.32,89.52
				c-83.79-59.47-189.1-86.2-288.39-51.83c-11.65,4.03-23,8.81-34.1,14.17c-0.67,0.32-1.01,1.44-0.54,2.05
				c90.73,118.04,141.2,265.28,169.89,409.91c16.54,83.37,25.54,168.27,27.17,253.24c0.82,42.84,0.05,85.86-3.52,128.57
				c-3.3,39.38-8.82,79.95-23.99,116.74c-14.79,35.87-41.03,63.65-79.88,71.89c-25.87,5.48-53.79,4.07-79.78-0.03
				c-50.45-7.95-97.83-29.37-139.92-57.87c-103.69-70.21-178.12-179.27-232.3-290.29C61.66,546.09,21.91,392.19,6.35,237.52
				c-2.05-20.35-3.64-40.74-4.85-61.16C1.39,174.44-1.61,174.43-1.5,176.36L-1.5,176.36z"/>
		</g>
	</g>
</g>
</svg>
