<?xml version="1.0" encoding="utf-8"?>
<!-- Generator: Adobe Illustrator 24.1.2, SVG Export Plug-In . SVG Version: 6.00 Build 0)  -->
<svg version="1.1" xmlns="http://www.w3.org/2000/svg" xmlns:xlink="http://www.w3.org/1999/xlink" x="0px" y="0px"
	 viewBox="0 0 1920 1080" style="enable-background:new 0 0 1920 1080;" xml:space="preserve">
<style type="text/css">
	.st0{fill:#898989;stroke:#000000;stroke-miterlimit:10;}
</style>
<g id="Layer_2">
	<path class="st0" d="M154.34,519.23c880,210,1490,270,1330,80s315.71-287.81-207.15-213.91s-172.85-486.09-522.85,73.91"/>
</g>
<g id="Layer_1">
	<g>
		<g>
			<path d="M151.94,290.18c8.3,79.05,39.98,154.17,87.83,217.39c47.89,63.27,111.4,114.91,183.51,148.15
				c35.7,16.46,73.51,28.41,112.31,34.84c19.51,3.23,39.25,5.09,59.03,5.46c21.05,0.39,42.74-0.34,62.99-6.66
				c19.08-5.96,35.41-17.44,46.05-34.53c11.04-17.73,15.61-38.74,17.89-59.26c4.72-42.4,1.46-85.84-8.02-127.38
				C694.45,384.54,649,306.62,584.15,250.23c-7.69-6.68-15.65-13.03-23.83-19.1c-0.12,0.91-0.24,1.83-0.36,2.74
				c78.86-21.61,163.26-17.14,240.45,9.15c77.91,26.54,148.81,75.5,198.15,141.72c27.7,37.18,47.41,79.71,76.49,115.93
				c29.83,37.16,70.07,62.95,112.62,83.37c40.68,19.52,89.42,37.31,134.63,23.23c33.63-10.47,65.29-40.22,65.89-77.35
				c0.34-21.16-9.85-40.47-22.09-57.06c-14.75-19.99-32.02-38.27-48.26-57.04c-36.82-42.56-73.65-85.12-110.47-127.68
				c-8.95-10.34-17.9-20.68-26.84-31.03c-0.35,0.85-0.71,1.71-1.06,2.56c97.74-10.1,197.39,3.84,288.74,39.98
				c86.2,34.11,170.2,88.09,221.98,166.69c27.41,41.61,43.89,89.87,41.18,140.06c-0.1,1.93,2.9,1.92,3,0
				c4.91-91.12-51.82-171.17-119.73-226.33c-75.71-61.51-170.8-100.62-266.45-117.39c-55.67-9.76-112.52-11.82-168.73-6.01
				c-1.31,0.14-1.95,1.53-1.06,2.56c35.45,40.97,70.89,81.94,106.34,122.91c17.9,20.68,35.79,41.37,53.69,62.05
				c15.54,17.96,32.72,36.12,41.53,58.58c17.06,43.5-13.35,85.39-54.18,100.17c-47.54,17.21-100.01-3.36-142.7-24.46
				c-43.46-21.48-83.04-48.96-112.28-88.16c-26.71-35.81-46.04-76.5-73.31-111.92c-46.86-60.86-111.74-106.7-183.44-133.66
				c-71.69-26.96-150.78-35.15-226.14-20.51c-9.67,1.88-19.25,4.16-28.74,6.76c-1.35,0.37-1.35,2.01-0.36,2.74
				c67.65,50.26,117.59,122.49,142.97,202.7c12.69,40.1,19.25,82.15,18.79,124.23c-0.45,41.25-4.97,93.59-44.19,117.19
				c-19.26,11.59-42.45,14.5-64.53,15.13c-19.09,0.54-38.24-0.44-57.19-2.69c-38.04-4.52-75.4-14.48-110.87-28.9
				c-71.69-29.13-135.8-76.54-185.67-135.61c-49.49-58.61-85.02-129.39-98.84-205.06c-1.85-10.12-3.27-20.3-4.34-30.52
				C154.74,288.28,151.74,288.26,151.94,290.18L151.94,290.18z"/>
		</g>
	</g>
</g>
</svg>
